<svg width="10" height="12" viewBox="0 0 10 12" fill="none" xmlns="http://www.w3.org/2000/svg">
<path d="M8.91587 9.3576L6.83913 8.31556C6.64326 8.21716 6.52152 8.01949 6.52152 7.79956V7.06189C6.5713 7.0008 6.6237 6.9312 6.67783 6.8544C6.94717 6.47258 7.16304 6.04756 7.32 5.58916C7.62674 5.448 7.82587 5.14364 7.82587 4.8V3.92727C7.82587 3.71716 7.74761 3.5136 7.60848 3.35455V2.19404C7.62065 2.07404 7.66848 1.35971 7.1537 0.7704C6.70717 0.2592 5.98261 0 4.99978 0C4.01696 0 3.29239 0.2592 2.84587 0.770182C2.33109 1.35949 2.37891 2.07404 2.39109 2.19382V3.35433C2.25196 3.51338 2.1737 3.71695 2.1737 3.92705V4.79978C2.1737 5.06531 2.29391 5.31295 2.49913 5.47811C2.69826 6.26945 3.115 6.86575 3.26065 7.05709V7.77905C3.26065 7.99025 3.14587 8.184 2.9613 8.28524L1.02196 9.34691C0.391522 9.69207 0 10.354 0 11.0749V12H10V11.1179C9.99978 10.3678 9.58435 9.69316 8.91587 9.3576Z" fill="black" fill-opacity="0.5"/>
</svg>
