<svg width="24" height="24" viewBox="0 0 24 24" fill="none" xmlns="http://www.w3.org/2000/svg">
<path d="M1.26139 15.5325L1.26044 15.5333L13.1343 19.1079L21.637 21.6675C23.1353 22.1186 24.3865 20.9839 23.8891 19.625L21.0668 11.9137L17.1312 1.16123C17.0509 0.883135 16.9102 0.647 16.7046 0.460558C15.0999 -0.994805 10.1732 1.11365 5.70055 5.17001C1.22789 9.22637 -1.09689 13.6944 0.507832 15.1499C0.709176 15.3325 0.962867 15.4589 1.26139 15.5325Z" fill="#FFEA63"/>
<path d="M23.8686 19.5697C23.552 19.6305 23.1982 19.616 22.8292 19.505L14.3265 16.9453L2.45275 13.3708L2.45371 13.37C2.15524 13.2964 1.90155 13.1699 1.7002 12.9873C1.01723 12.3679 1.04645 11.2027 1.64964 9.75586C0.0328724 12.1707 -0.491205 14.2442 0.507762 15.1502C0.709105 15.3328 0.962797 15.4593 1.26127 15.5329L1.26031 15.5337L13.1341 19.1082L21.6368 21.6679C23.1351 22.1189 24.3863 20.9842 23.889 19.6254L23.8686 19.5697Z" fill="#FFD551"/>
<path d="M7.57711 20.2149C6.67157 20.2149 5.9375 19.5492 5.9375 18.7279V12.6448H9.21671V18.7279C9.21671 19.5492 8.48264 20.2149 7.57711 20.2149Z" fill="#FFEA63"/>
<path d="M15.0029 24.0001C14.0973 24.0001 13.3633 23.3343 13.3633 22.5131V16.4299H16.6425V22.5131C16.6425 23.3343 15.9084 24.0001 15.0029 24.0001Z" fill="#FFEA63"/>
<path d="M17.9853 22.253H17.9851C17.2426 22.253 16.6406 21.7071 16.6406 21.0337V16.0452H19.3298V21.0337C19.3298 21.7071 18.7278 22.253 17.9853 22.253Z" fill="#FFEA63"/>
<path d="M17.1626 1.24647C14.9367 1.17056 11.068 3.16864 7.4895 6.41402C3.57186 9.96702 1.30217 13.8359 1.87764 15.7194L4.89016 16.6263C5.46909 14.577 7.47931 11.7349 10.4178 9.0698C13.1417 6.59944 16.0331 4.8529 18.2408 4.19251L17.1626 1.24647Z" fill="#FFD551"/>
<path d="M1.26044 15.5333L2.95979 16.0449C3.23715 13.9773 5.3588 10.7917 8.62901 7.82583C11.8979 4.8612 15.409 2.93746 17.6888 2.68462L17.1312 1.16123C17.0509 0.883135 16.9102 0.647 16.7046 0.460558C15.0999 -0.994805 10.1732 1.11365 5.70055 5.17001C1.22789 9.22637 -1.09689 13.6945 0.507832 15.1499C0.709176 15.3325 0.962867 15.4589 1.26139 15.5325L1.26044 15.5333Z" fill="#DB9C2E"/>
<path d="M10.9305 14.894C12.083 14.894 13.0173 14.0466 13.0173 13.0014C13.0173 11.9562 12.083 11.1089 10.9305 11.1089C9.77803 11.1089 8.84375 11.9562 8.84375 13.0014C8.84375 14.0466 9.77803 14.894 10.9305 14.894Z" fill="#FFC34C"/>
<path d="M11.5282 14.3532C12.6807 14.3532 13.6149 13.5059 13.6149 12.4607C13.6149 11.4154 12.6807 10.5681 11.5282 10.5681C10.3757 10.5681 9.44141 11.4154 9.44141 12.4607C9.44141 13.5059 10.3757 14.3532 11.5282 14.3532Z" fill="#FF624B"/>
<path d="M12.1244 13.8133C10.9719 13.8133 10.0376 12.966 10.0376 11.9208C10.0376 11.5365 10.1643 11.1791 10.3813 10.8806C9.81518 11.2191 9.44141 11.8006 9.44141 12.4615C9.44141 13.5067 10.3757 14.354 11.5282 14.354C12.2569 14.354 12.8981 14.015 13.2713 13.5016C12.9421 13.6984 12.5481 13.8133 12.1244 13.8133Z" fill="#FF4B34"/>
<path d="M18.3602 17.0566C19.5127 17.0566 20.447 16.2092 20.447 15.164C20.447 14.1188 19.5127 13.2715 18.3602 13.2715C17.2077 13.2715 16.2734 14.1188 16.2734 15.164C16.2734 16.2092 17.2077 17.0566 18.3602 17.0566Z" fill="#FFD551"/>
<path d="M18.954 16.5168C20.1064 16.5168 21.0407 15.6694 21.0407 14.6242C21.0407 13.579 20.1064 12.7317 18.954 12.7317C17.8015 12.7317 16.8672 13.579 16.8672 14.6242C16.8672 15.6694 17.8015 16.5168 18.954 16.5168Z" fill="#FF624B"/>
<path d="M19.5502 15.9754C18.3977 15.9754 17.4634 15.1281 17.4634 14.0829C17.4634 13.6986 17.59 13.3413 17.8071 13.0427C17.241 13.3812 16.8672 13.9627 16.8672 14.6236C16.8672 15.6688 17.8015 16.5161 18.954 16.5161C19.6827 16.5161 20.3238 16.1771 20.6971 15.6637C20.3679 15.8606 19.9739 15.9754 19.5502 15.9754Z" fill="#FF4B34"/>
<path d="M14.7626 9.0258C15.915 9.0258 16.8493 8.17848 16.8493 7.13326C16.8493 6.08804 15.915 5.24072 14.7626 5.24072C13.6101 5.24072 12.6758 6.08804 12.6758 7.13326C12.6758 8.17848 13.6101 9.0258 14.7626 9.0258Z" fill="#FFC34C"/>
<path d="M15.3563 8.48503C16.5088 8.48503 17.4431 7.63771 17.4431 6.59249C17.4431 5.54727 16.5088 4.69995 15.3563 4.69995C14.2038 4.69995 13.2695 5.54727 13.2695 6.59249C13.2695 7.63771 14.2038 8.48503 15.3563 8.48503Z" fill="#FF624B"/>
<path d="M14.1042 7.13322C14.1042 6.08799 15.0385 5.24068 16.191 5.24068C16.4584 5.24068 16.7137 5.28675 16.9486 5.36986C16.5658 4.96026 15.9947 4.69995 15.3563 4.69995C14.2038 4.69995 13.2695 5.54727 13.2695 6.59249C13.2695 7.39525 13.8209 8.08078 14.5987 8.35585C14.2905 8.02601 14.1042 7.59948 14.1042 7.13322Z" fill="#FF4B34"/>
<path d="M19.2039 11.2081L16.8394 12.0343C16.5936 12.1203 16.3175 12.0091 16.2228 11.7862L15.8523 10.9142C15.7576 10.6912 15.8801 10.4409 16.126 10.355L18.4904 9.52879C18.7363 9.44292 19.0123 9.55398 19.107 9.77693L19.4775 10.649C19.5722 10.8719 19.4497 11.1222 19.2039 11.2081Z" fill="#FFD551"/>
<path d="M19.5672 10.722L17.2027 11.5483C16.9568 11.6341 16.6808 11.5231 16.5861 11.3001L16.2156 10.4281C16.1209 10.2052 16.2434 9.9548 16.4892 9.86893L18.8537 9.0427C19.0995 8.95683 19.3756 9.0679 19.4703 9.29084L19.8408 10.1629C19.9355 10.3858 19.813 10.6362 19.5672 10.722Z" fill="#99AF17"/>
<path d="M14.7608 2.76361C15.3169 2.76361 15.7677 2.35477 15.7677 1.85043C15.7677 1.3461 15.3169 0.937256 14.7608 0.937256C14.2047 0.937256 13.7539 1.3461 13.7539 1.85043C13.7539 2.35477 14.2047 2.76361 14.7608 2.76361Z" fill="#BF6C0D"/>
<path d="M11.9991 3.6767C12.5552 3.6767 13.006 3.26785 13.006 2.76352C13.006 2.25919 12.5552 1.85034 11.9991 1.85034C11.443 1.85034 10.9922 2.25919 10.9922 2.76352C10.9922 3.26785 11.443 3.6767 11.9991 3.6767Z" fill="#BF6C0D"/>
<path d="M2.45275 13.3708L2.45371 13.37C2.15524 13.2964 1.90155 13.1699 1.7002 12.9873C1.01723 12.3679 1.04645 11.2027 1.64964 9.75586C0.0328724 12.1707 -0.491205 14.2442 0.507762 15.1502C0.709105 15.3328 0.962797 15.4593 1.26126 15.5329L1.26031 15.5337L2.95966 16.0453C3.0482 15.3852 3.3255 14.6109 3.7673 13.7665L2.45275 13.3708Z" fill="#BF6C0D"/>
</svg>
